HIERARCHY
ROOT joint_Root
{
	OFFSET 0.0 0.0 0.0
	CHANNELS 6 Xposition Yposition Zposition Zrotation Xrotation Yrotation 
	JOINT Hips
	{
		OFFSET -17.1583 93.1646 452.98
		CHANNELS 6 Xposition Yposition Zposition Zrotation Xrotation Yrotation 
		JOINT Spine
		{
			OFFSET 15.7357 0.0 0.0
			CHANNELS 6 Xposition Yposition Zposition Zrotation Xrotation Yrotation 
			JOINT Chest
			{
				OFFSET 8.98455 -0.406207 0.0
				CHANNELS 6 Xposition Yposition Zposition Zrotation Xrotation Yrotation 
				JOINT Neck
				{
					OFFSET 16.3773 0.0 0.0
					CHANNELS 6 Xposition Yposition Zposition Zrotation Xrotation Yrotation 
					JOINT Head
					{
						OFFSET 6.45672 0.0 0.0
						CHANNELS 6 Xposition Yposition Zposition Zrotation Xrotation Yrotation 
						End Site
						{
							OFFSET 0.0 0.0 0.0
						}
					}
				}
				JOINT Shoulder_L
				{
					OFFSET 12.9942 -0.242716 4.98039
					CHANNELS 6 Xposition Yposition Zposition Zrotation Xrotation Yrotation 
					JOINT UpperArm_L
					{
						OFFSET 5.34809 0.0 0.0
						CHANNELS 6 Xposition Yposition Zposition Zrotation Xrotation Yrotation 
						JOINT LowerArm_L
						{
							OFFSET 24.3286 1.87007e-05 0.0
							CHANNELS 6 Xposition Yposition Zposition Zrotation Xrotation Yrotation 
							JOINT Hand_L
							{
								OFFSET 22.2916 0.0 0.0
								CHANNELS 6 Xposition Yposition Zposition Zrotation Xrotation Yrotation 
								End Site
								{
									OFFSET 0.0 0.0 0.0
								}
							}
						}
					}
				}
				JOINT Shoulder_R
				{
					OFFSET 12.9945 -0.242716 -4.98039
					CHANNELS 6 Xposition Yposition Zposition Zrotation Xrotation Yrotation 
					JOINT UpperArm_R
					{
						OFFSET -5.34813 0.0 0.0
						CHANNELS 6 Xposition Yposition Zposition Zrotation Xrotation Yrotation 
						JOINT LowerArm_R
						{
							OFFSET -24.3289 0.000322201 0.0
							CHANNELS 6 Xposition Yposition Zposition Zrotation Xrotation Yrotation 
							JOINT Hand_R
							{
								OFFSET -22.2915 -0.000108084 0.0
								CHANNELS 6 Xposition Yposition Zposition Zrotation Xrotation Yrotation 
								End Site
								{
									OFFSET 0.0 0.0 0.0
								}
							}
						}
					}
				}
			}
		}
		JOINT UpperLeg_L
		{
			OFFSET -2.19248 -6.46944 0.0
			CHANNELS 6 Xposition Yposition Zposition Zrotation Xrotation Yrotation 
			JOINT LowerLeg_L
			{
				OFFSET 39.0811 0.0 -1.23785e-05
				CHANNELS 6 Xposition Yposition Zposition Zrotation Xrotation Yrotation 
				JOINT Foot_L
				{
					OFFSET 40.9854 0.0 -1.26872e-05
					CHANNELS 6 Xposition Yposition Zposition Zrotation Xrotation Yrotation 
					JOINT Toes_L
					{
						OFFSET 11.7543 0.0 0.0
						CHANNELS 6 Xposition Yposition Zposition Zrotation Xrotation Yrotation 
						End Site
						{
							OFFSET 0.0 0.0 0.0
						}
					}
				}
			}
		}
		JOINT UpperLeg_R
		{
			OFFSET -2.19251 6.46944 0.0
			CHANNELS 6 Xposition Yposition Zposition Zrotation Xrotation Yrotation 
			JOINT LowerLeg_R
			{
				OFFSET -39.0811 -0.00228153 -0.0401928
				CHANNELS 6 Xposition Yposition Zposition Zrotation Xrotation Yrotation 
				JOINT Foot_R
				{
					OFFSET -40.9854 0.0 0.0
					CHANNELS 6 Xposition Yposition Zposition Zrotation Xrotation Yrotation 
					JOINT Toes_R
					{
						OFFSET -11.7543 0.0 0.0
						CHANNELS 6 Xposition Yposition Zposition Zrotation Xrotation Yrotation 
						End Site
						{
							OFFSET 0.0 0.0 0.0
						}
					}
				}
			}
		}
	}
}
MOTION
Frames:	9
Frame Time:	0.0333333
0.000000 0.000000 0.000000 0.000000 0.000000 -0.000000 -4.452270 91.375900 -0.381274 84.955500 -1.631320 10.245800 15.735700 0.000005 -0.000001 84.149200 86.220600 -81.674000 8.984550 -0.406207 -0.000000 -0.221384 -0.942756 4.945880 16.377300 -0.000001 -0.000001 12.405100 2.319680 -12.583200 6.456720 -0.000001 -0.000000 -7.682110 4.090120 -19.846000 12.994200 -0.242716 4.980390 -93.262100 8.501260 -68.916300 5.348090 -0.000007 -0.000001 -73.528600 -10.951400 -11.365900 24.328600 0.000019 0.000005 30.302000 -33.371700 -133.267000 22.291600 -0.000001 0.000005 44.044300 4.890600 9.564440 12.994500 -0.242716 -4.980390 87.432500 6.742270 -69.096000 -5.348130 -0.000001 -0.000004 -68.570700 30.192900 -2.480560 -24.328900 0.000322 -0.000009 1.381500 4.919440 -15.718600 -22.291500 -0.000108 -0.000004 -2.985100 5.296850 0.160487 -2.192480 -6.469440 -0.000000 -173.791000 3.682070 1.970080 39.081100 -0.000007 -0.000012 0.422201 -0.722885 30.288100 40.985400 -0.000006 -0.000013 -0.237662 3.057950 -77.734200 11.754300 -0.000000 0.000003 0.000021 0.167269 -9.792480 -2.192510 6.469440 -0.000001 -170.624000 8.014610 -171.310000 -39.081100 -0.002282 -0.040193 0.200367 -0.586669 18.565900 -40.985400 0.000008 0.000006 6.937900 1.789130 -73.202500 -11.754300 -0.000006 -0.000006 -0.011260 0.280490 -5.175130
0.000000 0.000000 0.000000 0.000000 0.000000 -0.000000 -4.395420 91.426000 -0.542948 85.026400 -1.692630 10.113400 15.735700 0.000005 -0.000001 84.245500 86.160900 -81.756000 8.984550 -0.406207 -0.000000 -0.101087 -0.940472 4.975330 16.377300 -0.000001 -0.000001 12.224800 2.357130 -12.534300 6.456720 -0.000001 -0.000000 -7.909790 4.146810 -19.824600 12.994200 -0.242716 4.980390 -93.286300 8.574190 -68.936800 5.348090 -0.000007 -0.000001 -73.215900 -12.420300 -11.189200 24.328600 0.000019 0.000005 30.243100 -32.849900 -132.935000 22.291600 -0.000001 0.000005 42.370700 4.911760 9.142210 12.994500 -0.242716 -4.980390 87.411200 6.802030 -69.105800 -5.348130 -0.000001 -0.000004 -68.477700 30.391400 -2.552920 -24.328900 0.000322 -0.000009 1.335040 4.707100 -15.866000 -22.291500 -0.000108 -0.000004 -2.861680 5.297540 0.141230 -2.192480 -6.469440 -0.000000 -173.881000 3.606090 1.818370 39.081100 -0.000007 -0.000012 0.415570 -0.716946 30.099300 40.985400 -0.000006 -0.000013 -0.212723 3.034690 -77.532200 11.754300 -0.000000 0.000003 -0.000021 0.167970 -9.764010 -2.192510 6.469440 -0.000001 -170.666000 7.804470 -171.528000 -39.081100 -0.002282 -0.040193 0.197574 -0.580926 18.489200 -40.985400 0.000008 0.000006 6.887070 1.723370 -73.029400 -11.754300 -0.000006 -0.000006 -0.011248 0.280403 -5.178720
0.000000 0.000000 0.000000 0.000000 0.000000 -0.000000 -4.339200 91.473500 -0.722483 85.074200 -1.718980 9.971790 15.735700 0.000005 -0.000001 84.178100 86.088000 -81.671400 8.984550 -0.406207 -0.000000 0.043609 -0.962225 5.010740 16.377300 -0.000001 -0.000001 12.033400 2.391980 -12.445200 6.456720 -0.000001 -0.000000 -8.142070 4.191810 -19.791900 12.994200 -0.242716 4.980390 -93.312500 8.653500 -68.959100 5.348090 -0.000007 -0.000001 -72.867800 -13.606100 -10.905000 24.328600 0.000019 0.000005 30.169100 -32.206200 -132.517000 22.291600 -0.000001 0.000005 41.093900 4.918750 9.001560 12.994500 -0.242716 -4.980390 87.372900 6.897990 -69.091300 -5.348130 -0.000001 -0.000004 -68.340500 30.621700 -2.713190 -24.328900 0.000322 -0.000009 1.271330 4.471970 -15.900100 -22.291500 -0.000108 -0.000004 -2.836550 5.299010 0.100069 -2.192480 -6.469440 -0.000000 -173.937000 3.495170 1.606700 39.081100 -0.000007 -0.000012 0.415304 -0.720429 29.963100 40.985400 -0.000006 -0.000013 -0.173755 3.074740 -77.370100 11.754300 -0.000000 0.000003 -0.000105 0.169380 -9.706770 -2.192510 6.469440 -0.000001 -170.708000 7.758110 -171.750000 -39.081100 -0.002282 -0.040193 0.196813 -0.581897 18.393000 -40.985400 0.000008 0.000006 6.865530 1.746550 -72.887100 -11.754300 -0.000006 -0.000006 -0.011189 0.279987 -5.195730
0.000000 0.000000 0.000000 0.000000 0.000000 -0.000000 -4.285160 91.528200 -0.918232 85.123400 -1.687300 9.754160 15.735700 0.000005 -0.000001 84.231800 86.038200 -81.714900 8.984550 -0.406207 -0.000000 0.143764 -0.963435 5.031930 16.377300 -0.000001 -0.000001 11.845000 2.387840 -12.317900 6.456720 -0.000001 -0.000000 -8.326270 4.211380 -19.717500 12.994200 -0.242716 4.980390 -93.337500 8.725970 -68.973600 5.348090 -0.000007 -0.000001 -72.626700 -14.698400 -10.621500 24.328600 0.000019 0.000005 30.616200 -31.775200 -131.664000 22.291600 -0.000001 0.000005 39.912000 4.919060 8.995240 12.994500 -0.242716 -4.980390 87.334300 6.989320 -69.061900 -5.348130 -0.000001 -0.000004 -68.296400 30.474200 -2.865970 -24.328900 0.000322 -0.000009 1.362800 4.815430 -15.834000 -22.291500 -0.000108 -0.000004 -2.884080 5.297060 0.154695 -2.192480 -6.469440 -0.000000 -174.001000 3.445420 1.329190 39.081100 -0.000007 -0.000012 0.410423 -0.717201 29.781600 40.985400 -0.000006 -0.000013 -0.147692 3.072590 -77.137700 11.754300 -0.000000 0.000003 -0.000121 0.169640 -9.696180 -2.192510 6.469440 -0.000001 -170.741000 7.679690 -172.066000 -39.081100 -0.002282 -0.040193 0.193307 -0.575290 18.275500 -40.985400 0.000008 0.000006 6.822770 1.709690 -72.679800 -11.754300 -0.000006 -0.000006 -0.011129 0.279556 -5.213400
0.000000 0.000000 0.000000 0.000000 0.000000 -0.000000 -4.227520 91.584700 -1.114820 85.172800 -1.637540 9.544910 15.735700 0.000005 -0.000001 84.248800 85.974100 -81.725400 8.984550 -0.406207 -0.000000 0.271770 -0.971539 5.045800 16.377300 -0.000001 -0.000001 11.666600 2.350220 -12.095700 6.456720 -0.000001 -0.000000 -8.534970 4.233190 -19.651700 12.994200 -0.242716 4.980390 -93.388700 8.840470 -68.928600 5.348090 -0.000007 -0.000001 -72.547200 -16.004000 -10.353000 24.328600 0.000019 0.000005 30.863300 -31.063500 -130.808000 22.291600 -0.000001 0.000005 38.064700 4.928620 8.801720 12.994500 -0.242716 -4.980390 87.309700 7.062490 -69.084400 -5.348130 -0.000001 -0.000004 -68.216300 30.671800 -3.019950 -24.328900 0.000322 -0.000009 1.276320 4.512910 -15.822000 -22.291500 -0.000108 -0.000004 -2.861230 5.295810 0.189576 -2.192480 -6.469440 -0.000000 -174.067000 3.420150 1.051960 39.081100 -0.000007 -0.000012 0.404892 -0.713241 29.583700 40.985400 -0.000006 -0.000013 -0.101488 3.125990 -76.826800 11.754300 -0.000000 0.000003 0.000102 0.165887 -9.848630 -2.192510 6.469440 -0.000001 -170.756000 7.562630 -172.353000 -39.081100 -0.002282 -0.040193 0.189268 -0.568505 18.111900 -40.985400 0.000008 0.000006 6.776570 1.615530 -72.423100 -11.754300 -0.000006 -0.000006 -0.010896 0.277881 -5.281920
0.000000 0.000000 0.000000 0.000000 0.000000 -0.000000 -4.165720 91.647900 -1.316730 85.259400 -1.495520 9.344810 15.735700 0.000005 -0.000001 84.784800 85.917000 -82.286800 8.984550 -0.406207 -0.000000 0.390816 -0.902696 4.995830 16.377300 -0.000001 -0.000001 11.556100 2.324790 -11.905600 6.456720 -0.000001 -0.000000 -8.718580 4.107720 -19.409800 12.994200 -0.242716 4.980390 -93.400100 8.881440 -68.952100 5.348090 -0.000007 -0.000001 -72.612500 -17.122700 -10.107900 24.328600 0.000019 0.000005 31.027500 -29.928300 -129.674000 22.291600 -0.000001 0.000005 36.046600 4.959540 8.168050 12.994500 -0.242716 -4.980390 87.266800 7.161930 -69.047400 -5.348130 -0.000001 -0.000004 -68.165000 30.854500 -3.094280 -24.328900 0.000322 -0.000009 1.254500 4.455150 -15.756400 -22.291500 -0.000108 -0.000004 -2.795650 5.297590 0.139777 -2.192480 -6.469440 -0.000000 -174.205000 3.496140 0.786518 39.081100 -0.000007 -0.000012 0.402308 -0.715148 29.361000 40.985400 -0.000006 -0.000013 -0.076591 3.104430 -76.651900 11.754300 -0.000000 0.000003 -0.000282 0.172245 -9.590410 -2.192510 6.469440 -0.000001 -170.868000 7.611400 -172.633000 -39.081100 -0.002282 -0.040193 0.184510 -0.559196 17.953200 -40.985400 0.000008 0.000006 6.733920 1.641180 -72.250400 -11.754300 -0.000006 -0.000006 -0.011171 0.279860 -5.200950
0.000000 0.000000 0.000000 0.000000 0.000000 -0.000000 -4.103360 91.704400 -1.509820 85.326000 -1.346490 9.171960 15.735700 0.000005 -0.000001 85.285900 85.842100 -82.811800 8.984550 -0.406207 -0.000000 0.544625 -0.838992 4.948650 16.377300 -0.000001 -0.000001 11.433300 2.290130 -11.679300 6.456720 -0.000001 -0.000000 -8.865560 3.971480 -19.080400 12.994200 -0.242716 4.980390 -93.401600 8.905620 -68.995800 5.348090 -0.000007 -0.000001 -72.713200 -18.246400 -9.705670 24.328600 0.000019 0.000005 31.777000 -29.096300 -128.132000 22.291600 -0.000001 0.000005 33.514700 4.958140 8.196920 12.994500 -0.242716 -4.980390 87.243800 7.221930 -69.045400 -5.348130 -0.000001 -0.000004 -68.162600 30.962000 -3.173340 -24.328900 0.000322 -0.000009 1.239850 4.414970 -15.716000 -22.291500 -0.000108 -0.000004 -2.796680 5.298980 0.100940 -2.192480 -6.469440 -0.000000 -174.293000 3.558280 0.547795 39.081100 -0.000007 -0.000012 0.388342 -0.696810 29.132400 40.985400 -0.000006 -0.000013 -0.038161 3.146460 -76.290100 11.754300 -0.000000 0.000003 0.000123 0.165523 -9.863410 -2.192510 6.469440 -0.000001 -170.949000 7.673980 -172.883000 -39.081100 -0.002282 -0.040193 0.180662 -0.552784 17.786800 -40.985400 0.000008 0.000006 6.699050 1.642400 -72.028300 -11.754300 -0.000006 -0.000006 -0.011156 0.279748 -5.205500
0.000000 0.000000 0.000000 0.000000 0.000000 -0.000000 -4.035080 91.756700 -1.706050 85.429400 -1.124830 8.968430 15.735700 0.000005 -0.000001 85.631400 85.769400 -83.213300 8.984550 -0.406207 -0.000000 0.691994 -0.793451 4.837250 16.377300 -0.000001 -0.000001 11.314400 2.239260 -11.366800 6.456720 -0.000001 -0.000000 -9.074440 3.853960 -18.649100 12.994200 -0.242716 4.980390 -93.405800 8.927140 -69.017500 5.348090 -0.000007 -0.000001 -72.691800 -19.141100 -9.199180 24.328600 0.000019 0.000005 32.395500 -27.883200 -126.392000 22.291600 -0.000001 0.000005 31.013400 4.954110 8.280440 12.994500 -0.242716 -4.980390 87.202700 7.352410 -69.102800 -5.348130 -0.000001 -0.000004 -68.104500 31.094100 -3.234080 -24.328900 0.000322 -0.000009 1.235640 4.414270 -15.667600 -22.291500 -0.000108 -0.000004 -2.809590 5.298930 0.102473 -2.192480 -6.469440 -0.000000 -174.434000 3.589980 0.240659 39.081100 -0.000007 -0.000012 0.383659 -0.693758 28.944200 40.985400 -0.000006 -0.000013 0.024722 3.227440 -76.045700 11.754300 -0.000000 0.000003 0.000044 0.166887 -9.807990 -2.192510 6.469440 -0.000001 -171.220000 8.282940 -173.170000 -39.081100 -0.002282 -0.040193 0.177347 -0.545352 17.698100 -40.985400 0.000008 0.000006 6.724390 2.105710 -71.999900 -11.754300 -0.000006 -0.000006 -0.011450 0.281839 -5.119910
0.000000 0.000000 0.000000 0.000000 0.000000 -0.000000 -3.978430 91.810100 -1.888590 85.481800 -0.887213 8.812360 15.735700 0.000005 -0.000001 86.105900 85.680900 -83.736800 8.984550 -0.406207 -0.000000 0.871763 -0.728836 4.740030 16.377300 -0.000001 -0.000001 11.220800 2.176020 -11.012500 6.456720 -0.000001 -0.000000 -9.306260 3.701770 -18.108800 12.994200 -0.242716 4.980390 -93.401200 8.907670 -69.002000 5.348090 -0.000007 -0.000001 -72.588200 -19.673800 -8.516890 24.328600 0.000019 0.000005 32.740900 -26.057800 -124.340000 22.291600 -0.000001 0.000005 28.762300 4.964000 8.075510 12.994500 -0.242716 -4.980390 87.149700 7.481490 -69.074200 -5.348130 -0.000001 -0.000004 -68.005400 31.300800 -3.337410 -24.328900 0.000322 -0.000009 1.238050 4.431730 -15.637900 -22.291500 -0.000108 -0.000004 -2.787720 5.297140 0.152522 -2.192480 -6.469440 -0.000000 -174.488000 3.587050 -0.005537 39.081100 -0.000007 -0.000012 0.376179 -0.685730 28.749200 40.985400 -0.000006 -0.000013 0.102184 3.432520 -75.777400 11.754300 -0.000000 0.000003 0.000027 0.167174 -9.796360 -2.192510 6.469440 -0.000001 -171.277000 8.353080 -173.400000 -39.081100 -0.002282 -0.040193 0.173145 -0.537815 17.524200 -40.985400 0.000008 0.000006 6.671430 2.016690 -71.803800 -11.754300 -0.000006 -0.000006 -0.011369 0.281265 -5.143420
